<mxfile host="app.diagrams.net" modified="2022-06-16T21:32:18.633Z" agent="5.0 (Macintosh; Intel Mac OS X 10_15_7) AppleWebKit/537.36 (KHTML, like Gecko) Chrome/102.0.0.0 Safari/537.36" etag="GixbmY7eiwPVSgrwlEnx" version="20.0.1" type="github">
  <diagram id="fYcADGRSpnJ9BKwsWL2L" name="Page-1">
    <mxGraphModel dx="3013" dy="2490" grid="1" gridSize="10" guides="1" tooltips="1" connect="1" arrows="1" fold="1" page="1" pageScale="1" pageWidth="850" pageHeight="1100" math="0" shadow="0">
      <root>
        <mxCell id="0" />
        <mxCell id="1" parent="0" />
        <mxCell id="whkZVv4jui4XbJZlf2tO-2" value="VPC" style="points=[[0,0],[0.25,0],[0.5,0],[0.75,0],[1,0],[1,0.25],[1,0.5],[1,0.75],[1,1],[0.75,1],[0.5,1],[0.25,1],[0,1],[0,0.75],[0,0.5],[0,0.25]];outlineConnect=0;gradientColor=none;html=1;whiteSpace=wrap;fontSize=12;fontStyle=0;container=1;pointerEvents=0;collapsible=0;recursiveResize=0;shape=mxgraph.aws4.group;grIcon=mxgraph.aws4.group_vpc;strokeColor=#248814;fillColor=none;verticalAlign=top;align=left;spacingLeft=30;fontColor=#AAB7B8;dashed=0;" parent="1" vertex="1">
          <mxGeometry x="-200" y="70" width="950" height="700" as="geometry" />
        </mxCell>
        <mxCell id="TjwH5i7k18D9IgZxVtVU-4" style="edgeStyle=orthogonalEdgeStyle;rounded=0;orthogonalLoop=1;jettySize=auto;html=1;entryX=0.5;entryY=0;entryDx=0;entryDy=0;" edge="1" parent="whkZVv4jui4XbJZlf2tO-2" source="whkZVv4jui4XbJZlf2tO-12" target="yTbpTLJaxDxdCsMRn8U_-20">
          <mxGeometry relative="1" as="geometry">
            <Array as="points">
              <mxPoint x="398" y="180" />
              <mxPoint x="314" y="180" />
            </Array>
          </mxGeometry>
        </mxCell>
        <mxCell id="TjwH5i7k18D9IgZxVtVU-5" style="edgeStyle=orthogonalEdgeStyle;rounded=0;orthogonalLoop=1;jettySize=auto;html=1;" edge="1" parent="whkZVv4jui4XbJZlf2tO-2" source="whkZVv4jui4XbJZlf2tO-12" target="yTbpTLJaxDxdCsMRn8U_-13">
          <mxGeometry relative="1" as="geometry">
            <Array as="points">
              <mxPoint x="398" y="180" />
              <mxPoint x="544" y="180" />
            </Array>
          </mxGeometry>
        </mxCell>
        <mxCell id="TjwH5i7k18D9IgZxVtVU-6" style="edgeStyle=orthogonalEdgeStyle;rounded=0;orthogonalLoop=1;jettySize=auto;html=1;entryX=0.5;entryY=0;entryDx=0;entryDy=0;" edge="1" parent="whkZVv4jui4XbJZlf2tO-2" source="whkZVv4jui4XbJZlf2tO-12" target="yTbpTLJaxDxdCsMRn8U_-14">
          <mxGeometry relative="1" as="geometry">
            <Array as="points">
              <mxPoint x="398" y="180" />
              <mxPoint x="795" y="180" />
            </Array>
          </mxGeometry>
        </mxCell>
        <mxCell id="TjwH5i7k18D9IgZxVtVU-31" style="edgeStyle=orthogonalEdgeStyle;rounded=0;orthogonalLoop=1;jettySize=auto;html=1;" edge="1" parent="whkZVv4jui4XbJZlf2tO-2" source="whkZVv4jui4XbJZlf2tO-12" target="TjwH5i7k18D9IgZxVtVU-25">
          <mxGeometry relative="1" as="geometry">
            <Array as="points">
              <mxPoint x="398" y="180" />
              <mxPoint x="114" y="180" />
            </Array>
          </mxGeometry>
        </mxCell>
        <mxCell id="whkZVv4jui4XbJZlf2tO-12" value="" style="outlineConnect=0;dashed=0;verticalLabelPosition=bottom;verticalAlign=top;align=center;html=1;shape=mxgraph.aws3.api_gateway;fillColor=#D9A741;gradientColor=none;" parent="whkZVv4jui4XbJZlf2tO-2" vertex="1">
          <mxGeometry x="360" y="60" width="76.5" height="80" as="geometry" />
        </mxCell>
        <mxCell id="yTbpTLJaxDxdCsMRn8U_-15" value="DbSubnet1&lt;br&gt;" style="points=[[0,0],[0.25,0],[0.5,0],[0.75,0],[1,0],[1,0.25],[1,0.5],[1,0.75],[1,1],[0.75,1],[0.5,1],[0.25,1],[0,1],[0,0.75],[0,0.5],[0,0.25]];outlineConnect=0;gradientColor=none;html=1;whiteSpace=wrap;fontSize=12;fontStyle=0;container=1;pointerEvents=0;collapsible=0;recursiveResize=0;shape=mxgraph.aws4.group;grIcon=mxgraph.aws4.group_security_group;grStroke=0;strokeColor=#147EBA;fillColor=#E6F2F8;verticalAlign=top;align=left;spacingLeft=30;fontColor=#147EBA;dashed=0;" parent="whkZVv4jui4XbJZlf2tO-2" vertex="1">
          <mxGeometry x="479" y="540" width="130" height="130" as="geometry" />
        </mxCell>
        <mxCell id="yTbpTLJaxDxdCsMRn8U_-2" value="projects db&lt;br&gt;" style="sketch=0;outlineConnect=0;fontColor=#232F3E;gradientColor=none;fillColor=#2E27AD;strokeColor=none;dashed=0;verticalLabelPosition=bottom;verticalAlign=top;align=center;html=1;fontSize=12;fontStyle=0;aspect=fixed;pointerEvents=1;shape=mxgraph.aws4.rds_instance;" parent="yTbpTLJaxDxdCsMRn8U_-15" vertex="1">
          <mxGeometry x="24" y="30" width="70" height="70" as="geometry" />
        </mxCell>
        <mxCell id="yTbpTLJaxDxdCsMRn8U_-13" value="Private Subnet 1" style="points=[[0,0],[0.25,0],[0.5,0],[0.75,0],[1,0],[1,0.25],[1,0.5],[1,0.75],[1,1],[0.75,1],[0.5,1],[0.25,1],[0,1],[0,0.75],[0,0.5],[0,0.25]];outlineConnect=0;gradientColor=none;html=1;whiteSpace=wrap;fontSize=12;fontStyle=0;container=1;pointerEvents=0;collapsible=0;recursiveResize=0;shape=mxgraph.aws4.group;grIcon=mxgraph.aws4.group_security_group;grStroke=0;strokeColor=#147EBA;fillColor=#E6F2F8;verticalAlign=top;align=left;spacingLeft=30;fontColor=#147EBA;dashed=0;" parent="whkZVv4jui4XbJZlf2tO-2" vertex="1">
          <mxGeometry x="470" y="260" width="148" height="160" as="geometry" />
        </mxCell>
        <mxCell id="yTbpTLJaxDxdCsMRn8U_-12" value="Projects&lt;br&gt;ECS Cluster&lt;br&gt;" style="sketch=0;points=[[0,0,0],[0.25,0,0],[0.5,0,0],[0.75,0,0],[1,0,0],[0,1,0],[0.25,1,0],[0.5,1,0],[0.75,1,0],[1,1,0],[0,0.25,0],[0,0.5,0],[0,0.75,0],[1,0.25,0],[1,0.5,0],[1,0.75,0]];outlineConnect=0;fontColor=#232F3E;gradientColor=#F78E04;gradientDirection=north;fillColor=#D05C17;strokeColor=#ffffff;dashed=0;verticalLabelPosition=bottom;verticalAlign=top;align=center;html=1;fontSize=12;fontStyle=0;aspect=fixed;shape=mxgraph.aws4.resourceIcon;resIcon=mxgraph.aws4.ecs;" parent="yTbpTLJaxDxdCsMRn8U_-13" vertex="1">
          <mxGeometry x="29" y="40" width="78" height="78" as="geometry" />
        </mxCell>
        <mxCell id="yTbpTLJaxDxdCsMRn8U_-14" value="Private Subnet 2&lt;br&gt;" style="points=[[0,0],[0.25,0],[0.5,0],[0.75,0],[1,0],[1,0.25],[1,0.5],[1,0.75],[1,1],[0.75,1],[0.5,1],[0.25,1],[0,1],[0,0.75],[0,0.5],[0,0.25]];outlineConnect=0;gradientColor=none;html=1;whiteSpace=wrap;fontSize=12;fontStyle=0;container=1;pointerEvents=0;collapsible=0;recursiveResize=0;shape=mxgraph.aws4.group;grIcon=mxgraph.aws4.group_security_group;grStroke=0;strokeColor=#147EBA;fillColor=#E6F2F8;verticalAlign=top;align=left;spacingLeft=30;fontColor=#147EBA;dashed=0;" parent="whkZVv4jui4XbJZlf2tO-2" vertex="1">
          <mxGeometry x="720" y="260" width="150" height="160" as="geometry" />
        </mxCell>
        <mxCell id="yTbpTLJaxDxdCsMRn8U_-10" value="Messages EKS&lt;br&gt;&amp;nbsp;Cluster" style="sketch=0;points=[[0,0,0],[0.25,0,0],[0.5,0,0],[0.75,0,0],[1,0,0],[0,1,0],[0.25,1,0],[0.5,1,0],[0.75,1,0],[1,1,0],[0,0.25,0],[0,0.5,0],[0,0.75,0],[1,0.25,0],[1,0.5,0],[1,0.75,0]];outlineConnect=0;fontColor=#232F3E;gradientColor=#F78E04;gradientDirection=north;fillColor=#D05C17;strokeColor=#ffffff;dashed=0;verticalLabelPosition=bottom;verticalAlign=top;align=center;html=1;fontSize=12;fontStyle=0;aspect=fixed;shape=mxgraph.aws4.resourceIcon;resIcon=mxgraph.aws4.eks;" parent="yTbpTLJaxDxdCsMRn8U_-14" vertex="1">
          <mxGeometry x="36" y="31" width="78" height="78" as="geometry" />
        </mxCell>
        <mxCell id="yTbpTLJaxDxdCsMRn8U_-16" value="Private subnet" style="points=[[0,0],[0.25,0],[0.5,0],[0.75,0],[1,0],[1,0.25],[1,0.5],[1,0.75],[1,1],[0.75,1],[0.5,1],[0.25,1],[0,1],[0,0.75],[0,0.5],[0,0.25]];outlineConnect=0;gradientColor=none;html=1;whiteSpace=wrap;fontSize=12;fontStyle=0;container=1;pointerEvents=0;collapsible=0;recursiveResize=0;shape=mxgraph.aws4.group;grIcon=mxgraph.aws4.group_security_group;grStroke=0;strokeColor=#147EBA;fillColor=#E6F2F8;verticalAlign=top;align=left;spacingLeft=30;fontColor=#147EBA;dashed=0;" parent="whkZVv4jui4XbJZlf2tO-2" vertex="1">
          <mxGeometry x="730" y="540" width="130" height="130" as="geometry" />
        </mxCell>
        <mxCell id="yTbpTLJaxDxdCsMRn8U_-7" value="messages db&lt;br&gt;" style="sketch=0;outlineConnect=0;fontColor=#232F3E;gradientColor=none;fillColor=#2E27AD;strokeColor=none;dashed=0;verticalLabelPosition=bottom;verticalAlign=top;align=center;html=1;fontSize=12;fontStyle=0;aspect=fixed;pointerEvents=1;shape=mxgraph.aws4.aurora_instance;" parent="yTbpTLJaxDxdCsMRn8U_-16" vertex="1">
          <mxGeometry x="26" y="30" width="78" height="78" as="geometry" />
        </mxCell>
        <mxCell id="yTbpTLJaxDxdCsMRn8U_-20" value="Private Subnet 3&lt;br&gt;" style="points=[[0,0],[0.25,0],[0.5,0],[0.75,0],[1,0],[1,0.25],[1,0.5],[1,0.75],[1,1],[0.75,1],[0.5,1],[0.25,1],[0,1],[0,0.75],[0,0.5],[0,0.25]];outlineConnect=0;gradientColor=none;html=1;whiteSpace=wrap;fontSize=12;fontStyle=0;container=1;pointerEvents=0;collapsible=0;recursiveResize=0;shape=mxgraph.aws4.group;grIcon=mxgraph.aws4.group_security_group;grStroke=0;strokeColor=#147EBA;fillColor=#E6F2F8;verticalAlign=top;align=left;spacingLeft=30;fontColor=#147EBA;dashed=0;" parent="whkZVv4jui4XbJZlf2tO-2" vertex="1">
          <mxGeometry x="239.75" y="260" width="148" height="160" as="geometry" />
        </mxCell>
        <mxCell id="yTbpTLJaxDxdCsMRn8U_-21" value="Settings&lt;br&gt;&amp;nbsp;ECS Cluster" style="sketch=0;points=[[0,0,0],[0.25,0,0],[0.5,0,0],[0.75,0,0],[1,0,0],[0,1,0],[0.25,1,0],[0.5,1,0],[0.75,1,0],[1,1,0],[0,0.25,0],[0,0.5,0],[0,0.75,0],[1,0.25,0],[1,0.5,0],[1,0.75,0]];outlineConnect=0;fontColor=#232F3E;gradientColor=#F78E04;gradientDirection=north;fillColor=#D05C17;strokeColor=#ffffff;dashed=0;verticalLabelPosition=bottom;verticalAlign=top;align=center;html=1;fontSize=12;fontStyle=0;aspect=fixed;shape=mxgraph.aws4.resourceIcon;resIcon=mxgraph.aws4.ecs;" parent="yTbpTLJaxDxdCsMRn8U_-20" vertex="1">
          <mxGeometry x="40" y="31" width="78" height="78" as="geometry" />
        </mxCell>
        <mxCell id="TjwH5i7k18D9IgZxVtVU-16" style="edgeStyle=orthogonalEdgeStyle;rounded=0;orthogonalLoop=1;jettySize=auto;html=1;" edge="1" parent="whkZVv4jui4XbJZlf2tO-2" source="yTbpTLJaxDxdCsMRn8U_-12" target="yTbpTLJaxDxdCsMRn8U_-2">
          <mxGeometry relative="1" as="geometry" />
        </mxCell>
        <mxCell id="TjwH5i7k18D9IgZxVtVU-17" style="edgeStyle=orthogonalEdgeStyle;rounded=0;orthogonalLoop=1;jettySize=auto;html=1;" edge="1" parent="whkZVv4jui4XbJZlf2tO-2" source="yTbpTLJaxDxdCsMRn8U_-10" target="yTbpTLJaxDxdCsMRn8U_-7">
          <mxGeometry relative="1" as="geometry" />
        </mxCell>
        <mxCell id="TjwH5i7k18D9IgZxVtVU-25" value="Private Subnet 3&lt;br&gt;" style="points=[[0,0],[0.25,0],[0.5,0],[0.75,0],[1,0],[1,0.25],[1,0.5],[1,0.75],[1,1],[0.75,1],[0.5,1],[0.25,1],[0,1],[0,0.75],[0,0.5],[0,0.25]];outlineConnect=0;gradientColor=none;html=1;whiteSpace=wrap;fontSize=12;fontStyle=0;container=1;pointerEvents=0;collapsible=0;recursiveResize=0;shape=mxgraph.aws4.group;grIcon=mxgraph.aws4.group_security_group;grStroke=0;strokeColor=#147EBA;fillColor=#E6F2F8;verticalAlign=top;align=left;spacingLeft=30;fontColor=#147EBA;dashed=0;" vertex="1" parent="whkZVv4jui4XbJZlf2tO-2">
          <mxGeometry x="40" y="250" width="148" height="160" as="geometry" />
        </mxCell>
        <mxCell id="TjwH5i7k18D9IgZxVtVU-26" value="Users&lt;br&gt;&amp;nbsp;ECS Cluster" style="sketch=0;points=[[0,0,0],[0.25,0,0],[0.5,0,0],[0.75,0,0],[1,0,0],[0,1,0],[0.25,1,0],[0.5,1,0],[0.75,1,0],[1,1,0],[0,0.25,0],[0,0.5,0],[0,0.75,0],[1,0.25,0],[1,0.5,0],[1,0.75,0]];outlineConnect=0;fontColor=#232F3E;gradientColor=#F78E04;gradientDirection=north;fillColor=#D05C17;strokeColor=#ffffff;dashed=0;verticalLabelPosition=bottom;verticalAlign=top;align=center;html=1;fontSize=12;fontStyle=0;aspect=fixed;shape=mxgraph.aws4.resourceIcon;resIcon=mxgraph.aws4.ecs;" vertex="1" parent="TjwH5i7k18D9IgZxVtVU-25">
          <mxGeometry x="40" y="31" width="78" height="78" as="geometry" />
        </mxCell>
        <mxCell id="yTbpTLJaxDxdCsMRn8U_-22" value="settings-db&lt;br&gt;" style="outlineConnect=0;dashed=0;verticalLabelPosition=bottom;verticalAlign=top;align=center;html=1;shape=mxgraph.aws3.dynamo_db;fillColor=#2E73B8;gradientColor=none;" parent="1" vertex="1">
          <mxGeometry x="60" y="800" width="72" height="81" as="geometry" />
        </mxCell>
        <mxCell id="yTbpTLJaxDxdCsMRn8U_-24" style="edgeStyle=orthogonalEdgeStyle;rounded=0;orthogonalLoop=1;jettySize=auto;html=1;" parent="1" source="yTbpTLJaxDxdCsMRn8U_-20" target="yTbpTLJaxDxdCsMRn8U_-22" edge="1">
          <mxGeometry relative="1" as="geometry">
            <Array as="points">
              <mxPoint x="100" y="660" />
              <mxPoint x="100" y="660" />
            </Array>
          </mxGeometry>
        </mxCell>
        <mxCell id="TjwH5i7k18D9IgZxVtVU-21" style="edgeStyle=orthogonalEdgeStyle;rounded=0;orthogonalLoop=1;jettySize=auto;html=1;" edge="1" parent="1" source="whkZVv4jui4XbJZlf2tO-8">
          <mxGeometry relative="1" as="geometry">
            <mxPoint x="-660" y="700" as="targetPoint" />
          </mxGeometry>
        </mxCell>
        <mxCell id="whkZVv4jui4XbJZlf2tO-8" value="profile-pictures&lt;br&gt;" style="sketch=0;outlineConnect=0;fontColor=#232F3E;gradientColor=none;fillColor=#3F8624;strokeColor=none;dashed=0;verticalLabelPosition=bottom;verticalAlign=top;align=center;html=1;fontSize=12;fontStyle=0;aspect=fixed;pointerEvents=1;shape=mxgraph.aws4.bucket;" parent="1" vertex="1">
          <mxGeometry x="-550" y="519" width="60.58" height="63" as="geometry" />
        </mxCell>
        <mxCell id="TjwH5i7k18D9IgZxVtVU-9" style="edgeStyle=orthogonalEdgeStyle;rounded=0;orthogonalLoop=1;jettySize=auto;html=1;entryX=0.5;entryY=0;entryDx=0;entryDy=0;entryPerimeter=0;" edge="1" parent="1" source="TjwH5i7k18D9IgZxVtVU-8" target="whkZVv4jui4XbJZlf2tO-12">
          <mxGeometry relative="1" as="geometry" />
        </mxCell>
        <mxCell id="TjwH5i7k18D9IgZxVtVU-8" value="" style="sketch=0;points=[[0,0,0],[0.25,0,0],[0.5,0,0],[0.75,0,0],[1,0,0],[0,1,0],[0.25,1,0],[0.5,1,0],[0.75,1,0],[1,1,0],[0,0.25,0],[0,0.5,0],[0,0.75,0],[1,0.25,0],[1,0.5,0],[1,0.75,0]];outlineConnect=0;fontColor=#232F3E;gradientColor=#945DF2;gradientDirection=north;fillColor=#5A30B5;strokeColor=#ffffff;dashed=0;verticalLabelPosition=bottom;verticalAlign=top;align=center;html=1;fontSize=12;fontStyle=0;aspect=fixed;shape=mxgraph.aws4.resourceIcon;resIcon=mxgraph.aws4.cloudfront;" vertex="1" parent="1">
          <mxGeometry x="160" y="-78" width="78" height="78" as="geometry" />
        </mxCell>
        <mxCell id="TjwH5i7k18D9IgZxVtVU-11" style="edgeStyle=orthogonalEdgeStyle;rounded=0;orthogonalLoop=1;jettySize=auto;html=1;entryX=0;entryY=0.5;entryDx=0;entryDy=0;entryPerimeter=0;" edge="1" parent="1" source="TjwH5i7k18D9IgZxVtVU-10" target="TjwH5i7k18D9IgZxVtVU-8">
          <mxGeometry relative="1" as="geometry" />
        </mxCell>
        <mxCell id="TjwH5i7k18D9IgZxVtVU-10" value="static-website-content&lt;br&gt;" style="sketch=0;outlineConnect=0;fontColor=#232F3E;gradientColor=none;fillColor=#3F8624;strokeColor=none;dashed=0;verticalLabelPosition=bottom;verticalAlign=top;align=center;html=1;fontSize=12;fontStyle=0;aspect=fixed;pointerEvents=1;shape=mxgraph.aws4.bucket;" vertex="1" parent="1">
          <mxGeometry x="-210" y="-84" width="86.54" height="90" as="geometry" />
        </mxCell>
        <mxCell id="TjwH5i7k18D9IgZxVtVU-19" style="edgeStyle=orthogonalEdgeStyle;rounded=0;orthogonalLoop=1;jettySize=auto;html=1;" edge="1" parent="1" source="whkZVv4jui4XbJZlf2tO-9" target="whkZVv4jui4XbJZlf2tO-8">
          <mxGeometry relative="1" as="geometry" />
        </mxCell>
        <mxCell id="whkZVv4jui4XbJZlf2tO-9" value="upload-images-service&lt;br&gt;" style="outlineConnect=0;dashed=0;verticalLabelPosition=bottom;verticalAlign=top;align=center;html=1;shape=mxgraph.aws3.lambda_function;fillColor=#F58534;gradientColor=none;" parent="1" vertex="1">
          <mxGeometry x="-400" y="350" width="59" height="72" as="geometry" />
        </mxCell>
        <mxCell id="TjwH5i7k18D9IgZxVtVU-3" style="edgeStyle=orthogonalEdgeStyle;rounded=0;orthogonalLoop=1;jettySize=auto;html=1;" edge="1" parent="1" source="whkZVv4jui4XbJZlf2tO-12">
          <mxGeometry relative="1" as="geometry">
            <mxPoint x="-375" y="330" as="targetPoint" />
            <Array as="points">
              <mxPoint x="198" y="250" />
              <mxPoint x="-375" y="250" />
              <mxPoint x="-375" y="360" />
            </Array>
          </mxGeometry>
        </mxCell>
        <mxCell id="TjwH5i7k18D9IgZxVtVU-20" value="user-meta-data&lt;br&gt;" style="outlineConnect=0;dashed=0;verticalLabelPosition=bottom;verticalAlign=top;align=center;html=1;shape=mxgraph.aws3.dynamo_db;fillColor=#2E73B8;gradientColor=none;" vertex="1" parent="1">
          <mxGeometry x="-540" y="750" width="72" height="81" as="geometry" />
        </mxCell>
        <mxCell id="TjwH5i7k18D9IgZxVtVU-23" style="edgeStyle=orthogonalEdgeStyle;rounded=0;orthogonalLoop=1;jettySize=auto;html=1;entryX=0.5;entryY=0;entryDx=0;entryDy=0;entryPerimeter=0;" edge="1" parent="1" source="TjwH5i7k18D9IgZxVtVU-22" target="TjwH5i7k18D9IgZxVtVU-20">
          <mxGeometry relative="1" as="geometry" />
        </mxCell>
        <mxCell id="TjwH5i7k18D9IgZxVtVU-22" value="image-processor&lt;br&gt;" style="outlineConnect=0;dashed=0;verticalLabelPosition=bottom;verticalAlign=top;align=center;html=1;shape=mxgraph.aws3.lambda_function;fillColor=#F58534;gradientColor=none;" vertex="1" parent="1">
          <mxGeometry x="-690" y="678" width="59" height="72" as="geometry" />
        </mxCell>
        <mxCell id="TjwH5i7k18D9IgZxVtVU-32" style="edgeStyle=orthogonalEdgeStyle;rounded=0;orthogonalLoop=1;jettySize=auto;html=1;entryX=1;entryY=0.5;entryDx=0;entryDy=0;entryPerimeter=0;" edge="1" parent="1" source="TjwH5i7k18D9IgZxVtVU-26" target="TjwH5i7k18D9IgZxVtVU-20">
          <mxGeometry relative="1" as="geometry">
            <Array as="points">
              <mxPoint x="-90" y="790" />
            </Array>
          </mxGeometry>
        </mxCell>
      </root>
    </mxGraphModel>
  </diagram>
</mxfile>
